<?xml version="1.0" standalone="no"?><!DOCTYPE svg PUBLIC "-//W3C//DTD SVG 1.1//EN" "http://www.w3.org/Graphics/SVG/1.1/DTD/svg11.dtd"><svg t="1581382794571" class="icon" viewBox="0 0 1024 1024" version="1.1" xmlns="http://www.w3.org/2000/svg" p-id="1421" xmlns:xlink="http://www.w3.org/1999/xlink" width="200" height="200"><defs><style type="text/css"></style></defs><path d="M171.01 92.72q-32.97 1.03-55.11 23.17T92.73 171v681.98q1.03 32.97 23.17 55.12 22.14 22.14 55.11 23.17h681.98q32.97-1.03 55.12-23.17 22.14-22.14 23.17-55.12V171q-1.03-32.97-23.17-55.11t-55.12-23.17H171.01z m0-92.72h681.98q73.14 2.06 121.05 49.97 47.9 47.91 49.96 121.04v681.98q-2.06 73.14-49.96 121.05-47.91 47.9-121.05 49.96H171.01q-73.14-2.06-121.04-49.96Q2.06 926.13 0 852.99V171.01Q2.06 97.87 49.97 49.97 97.88 2.06 171.01 0z m240.03 639.74l378.08-386.32q9.27-9.27 20.6-12.36 11.33-3.09 23.69 0 12.37 3.09 21.12 11.33 8.75 8.25 12.36 20.61 3.61 12.36 0.52 24.21-3.09 11.84-12.36 21.12L445.04 738.64q-14.42 13.39-34 13.39-19.57 0-32.97-13.39L168.94 524.36q-9.27-9.27-12.88-21.12-3.6-11.85 0-24.21 3.61-12.36 12.36-21.12 8.75-8.75 21.12-11.84 12.36-3.09 24.72 0.51 12.36 3.6 20.6 12.87l176.16 180.28z" fill="#666666" p-id="1422"></path></svg>