<?xml version="1.0" standalone="no"?><!DOCTYPE svg PUBLIC "-//W3C//DTD SVG 1.1//EN" "http://www.w3.org/Graphics/SVG/1.1/DTD/svg11.dtd"><svg t="1581382803149" class="icon" viewBox="0 0 1024 1024" version="1.1" xmlns="http://www.w3.org/2000/svg" p-id="1669" xmlns:xlink="http://www.w3.org/1999/xlink" width="200" height="200"><defs><style type="text/css"></style></defs><path d="M171.01 92.72q-32.97 1.03-55.11 23.17T92.73 171v681.98q1.03 32.97 23.17 55.12 22.14 22.14 55.11 23.17h681.98q32.97-1.03 55.12-23.17 22.14-22.14 23.17-55.12V171q-1.03-32.97-23.17-55.11t-55.12-23.17H171.01z m0-92.72h681.98q73.14 2.06 121.05 49.97 47.9 47.91 49.96 121.04v681.98q-2.06 73.14-49.96 121.05-47.91 47.9-121.05 49.96H171.01q-73.14-2.06-121.04-49.96Q2.06 926.13 0 852.99V171.01Q2.06 97.87 49.97 49.97 97.88 2.06 171.01 0z" fill="#666666" p-id="1670"></path></svg>