<?xml version="1.0" standalone="no"?><!DOCTYPE svg PUBLIC "-//W3C//DTD SVG 1.1//EN" "http://www.w3.org/Graphics/SVG/1.1/DTD/svg11.dtd"><svg t="1581382785027" class="icon" viewBox="0 0 1024 1024" version="1.1" xmlns="http://www.w3.org/2000/svg" p-id="1297" xmlns:xlink="http://www.w3.org/1999/xlink" width="200" height="200"><defs><style type="text/css"></style></defs><path d="M1024 512q-5 218-149.5 362.5T512 1024q-218-5-362.5-149.5T0 512q5-218 149.5-362.5T512 0q218 5 362.5 149.5T1024 512zM420 623L257 464q-8-8-19-11t-22 0q-11 3-19 11t-11 19.5q-3 11.5 0 22t12 19.5l192 188q13 12 29.5 12t30.5-12l376-370q13-13 13-30t-12.5-30Q814 270 797 270t-30 12L420 623z" fill="#666666" p-id="1298"></path></svg>